<?xml version="1.0" encoding="UTF-8"?>
<svg id="_l_2" data-name="l_2" xmlns="http://www.w3.org/2000/svg" xmlns:xlink="http://www.w3.org/1999/xlink" viewBox="0 0 307.6 308.24" width="48" height="48">
  <defs>
    <style>
      .cls-1 {
        fill: #2d60aa;
      }

      .cls-1, .cls-2, .cls-3 {
        fill-rule: evenodd;
      }

      .cls-2 {
        fill: #295ba3;
      }

      .cls-4 {
        fill: none;
      }

      .cls-5 {
        clip-path: url(#clippath-1);
      }

      .cls-6 {
        fill: url(#_g_2-2);
      }

      .cls-7 {
        clip-path: url(#clippath);
      }

      .cls-3 {
        fill: #9ebbe5;
      }

      .cls-8 {
        fill: url(#_g_2);
      }
    </style>
    <clipPath id="clippath">
      <path id="SVGID" class="cls-4" d="M0,154.27s69.95,104.34,153.97,153.97c0,0,88.02-53.63,153.63-155.78,0,0-56.52-81.95-125.32-133.55-5.66,3.59-10.06,8.93-13.66,14.51-4.44,6.88-7.85,14.41-10.77,22.04-3.26,8.56-5.9,17.34-8.17,26.21-2.29,8.93-4.22,17.95-5.89,27.01-1.5,8.12-2.79,16.27-3.91,24.44-.84,6.16-1.59,12.33-2.23,18.51-.67,6.49-2.02,13.4-1.28,19.93.42,3.67,1.66,7.37,4.34,10.01,3.19,3.14,7.95,4.28,12.32,3.86.25-.03.51-.05.75-.09,63.92-10.75,82.24-26.38,82.24-26.38-.53-.03-1.05-.06-1.58-.09l-4.32-.24c-2.15-.12-4.3-.24-6.46-.35l-7.98-.44c-2.97-.16-5.93-.33-8.9-.49-3.07-.17-6.14-.34-9.21-.51-2.97-.16-5.94-.32-8.91-.49-2.67-.15-5.33-.29-8-.44-1.89,0-3.81-.2-5.69-.31-2.66-.16-5.33-.35-8-.35-2.11,0-4.35-.17-6.23-1.22-1.04-.58-1.86-1.5-2.06-2.69-.15-.94.1-1.71.59-2.5.5-.81,1.01-1.61,1.52-2.4,1.02-1.59,2.07-3.17,3.15-4.73,2.15-3.12,4.4-6.17,6.76-9.14,1.42-1.8,2.88-3.57,4.38-5.3,2.24-2.6,4.54-5.13,6.96-7.57,2.65-2.67,5.57-5.06,8.04-7.89,1.43-1.64,2.88-3.31,4.77-4.43,2.53-1.48,5.43-2.19,8.35-2.32,3.63-.15,7.26.52,10.7,1.66,3.48,1.15,6.86,2.6,10.26,4,3.37,1.39,6.78,2.68,10.11,4.16,6.01,2.67,11.87,5.69,17.57,8.98,4.64,2.68,9.18,5.55,13.59,8.6,3,2.08,5.94,4.24,8.8,6.5,3.87,3.06,8.88,6.38,9.35,11.77.2,2.27-.53,4.51-1.77,6.39-1.34,2.01-3.11,3.81-4.69,5.64-1.68,1.95-3.37,3.88-5.09,5.8-3.32,3.7-6.72,7.32-10.2,10.87-6.43,6.56-13.12,12.87-20.05,18.91-6.09,5.31-12.37,10.41-18.82,15.28-5.44,4.1-11,8.04-16.68,11.8-4.46,2.95-9,5.79-13.62,8.49-3.18,1.86-6.38,3.65-9.65,5.35-1.57.82-3.15,1.62-4.75,2.37-.11.05-.23.1-.34.16-7.7,4.13-16.79,4.67-24.43.09-3.79-2.28-6.99-5.61-10.14-8.68-3.27-3.19-6.42-6.5-9.47-9.91-9.72-10.85-18.48-22.9-26.43-35.23-3.15-4.89-6.76-9.55-9.06-14.93-2.14-5-3.39-10.34-3.95-15.74-1.4-13.54.93-28.44,6.16-41.05,1.76-6.73,3.88-13.36,6.31-19.88,2.32-6.23,4.91-12.35,7.74-18.36,2.63-5.59,5.47-11.09,8.48-16.5,2.7-4.84,5.54-9.6,8.52-14.28,2.52-3.97,5.14-7.87,7.85-11.71,2.1-2.98,4.26-5.91,6.47-8.8,1.44-1.87,2.9-3.72,4.4-5.53,1.93-2.33,3.63-4.79,6.16-6.53,2-1.38,4.28-2.31,6.64-2.87,2.78-.65,5.78-.89,8.62-.5.02,0,.05,0,.07.01-5.91-4.08-11.89-7.91-17.92-11.41,0,0-81.68,44.07-153.97,154.27"/>
    </clipPath>
    <linearGradient id="_g_2" data-name="g 2" x1="-610.57" y1="750.11" x2="-608.69" y2="750.11" gradientTransform="translate(80546.38 99112.59) scale(131.93 -131.93)" gradientUnits="userSpaceOnUse">
      <stop offset="0" stop-color="#6ea4d8"/>
      <stop offset="1" stop-color="#043786"/>
    </linearGradient>
    <clipPath id="clippath-1">
      <path id="SVGID-2" data-name="SVGID" class="cls-4" d="M304.92,151.73c-54.84,84.28-151.12,151.38-151.12,151.38-12.7-7.14-60.29-41.05-61.78-42.11,19.02,17.6,40,34.29,61.94,47.25,0,0,88.02-53.63,153.63-155.78,0,0-.18-.25-.51-.74h-2.17Z"/>
    </clipPath>
    <linearGradient id="_g_2-2" data-name="g 2" x1="-610.5" y1="748.97" x2="-608.61" y2="748.97" gradientTransform="translate(69887.9 85856.76) scale(114.33 -114.33)" xlink:href="#_g_2"/>
  </defs>
  <g id="_l_1-2" data-name="l_1">
    <g>
      <g class="cls-7">
        <rect class="cls-8" x="-44.93" y="-44.42" width="397.46" height="397.09" transform="translate(-44.93 243.08) rotate(-69.18)"/>
      </g>
      <path class="cls-3" d="M287.43,154.12c-1.19,2.03-2.64,3.94-4.06,5.82-4.36,5.82-9.14,11.34-14.07,16.69-8.48,9.18-17.52,17.86-26.85,26.18-11.57,10.33-23.86,19.59-37.01,27.82-1.71,1.07-3.44,2.13-5.17,3.17-6.7,4.04-13.61,7.74-20.48,11.5-4.54,2.49-8.82,4.94-14.01,5.79-6.61,1.07-13.19-.64-18.46-4.79,0,0-29.7-18.17-60.96-68.58,0,0-50.02-1.27-80.89-23.6,0-.04,1.7-2.47,1.79-2.59,1.73-2.46,3.48-4.9,5.24-7.33,2.76-3.8,5.57-7.57,8.42-11.31,6.29-8.28,12.84-16.51,19.49-24.56,1.93-2.34,3.88-4.66,5.84-6.97,5.36-6.33,10.81-12.57,16.37-18.72,6.04-6.67,12.2-13.23,18.49-19.67,6.63-6.78,13.41-13.4,20.35-19.86,6.28-5.84,12.7-11.53,19.21-17.11,4.3-3.68,8.68-7.26,13.21-10.65,4.49-3.38,9.2-6.89,14.4-9.11,1.51-.64,3.96-1.69,5.53-.65-.23-.15-1.59.67-1.78.77-1.72.89-3.3,2.04-4.79,3.28-6.58,5.49-11.1,13-15.39,20.3-2.27,3.88-4.46,7.81-6.58,11.77-3.26,6.09-6.35,12.26-9.3,18.51-3.64,7.75-7.04,15.61-10.14,23.58-3.45,8.85-6.53,17.83-9.14,26.96-1.89,6.64-3.55,13.39-5.25,20.07-.94,3.7-1.61,7.49-2,11.29-1.12,10.82.02,22.09,4.83,31.95,3.04,6.25,7.74,11.73,11.97,17.22,4.63,5.99,9.44,11.82,14.4,17.52,4.31,4.95,8.73,9.79,13.28,14.51,3.05,3.4,6.2,6.71,9.46,9.9,3.15,3.08,6.35,6.41,10.14,8.68,7.63,4.58,16.73,4.04,24.43-.09.11-.05.23-.1.34-.16,1.6-.75,3.18-1.56,4.75-2.37,3.26-1.7,6.47-3.49,9.64-5.36,4.62-2.7,9.15-5.54,13.61-8.5,5.68-3.75,11.25-7.7,16.68-11.8,6.46-4.87,12.73-9.97,18.83-15.27,6.92-6.03,13.61-12.35,20.05-18.91,3.48-3.56,6.88-7.17,10.2-10.87,1.72-1.91,3.41-3.84,5.09-5.8,1.58-1.83,3.35-3.62,4.69-5.64,1.24-1.88,1.97-4.12,1.78-6.38-.48-5.4-5.49-8.71-9.36-11.77-2.86-2.27-5.81-4.42-8.8-6.5-4.41-3.06-8.95-5.92-13.59-8.61,3.85,1.84,7.6,3.93,11.27,6.08,7.38,4.32,14.47,9.14,20.87,14.83,2.52,2.24,5.49,5.82,3.44,9.33"/>
      <path class="cls-3" d="M307.08,151.72s-12.04-1.49-15.16-1.36c0,0,.39-6.25-13.68-16.41,0,0-37.12-32.43-79.46-46.76,0,0-1.86-43.03-16.5-68.28,64.98,48.74,119.01,124.55,124.8,132.81"/>
      <path class="cls-2" d="M198.78,87.19s-31.69,12.52-61.05,89.82c-.71-1.73-1.13-3.59-1.34-5.45-.74-6.54.61-13.44,1.28-19.93.64-6.18,1.38-12.36,2.23-18.51,1.12-8.18,2.42-16.34,3.91-24.45,1.67-9.06,3.6-18.08,5.88-27.01,2.28-8.86,4.92-17.66,8.18-26.2,2.92-7.64,6.32-15.16,10.76-22.05,3.6-5.57,7.99-10.92,13.65-14.5,14.64,25.25,16.5,68.28,16.5,68.28"/>
      <path class="cls-1" d="M236.04,158.96s-18.32,15.63-82.24,26.38c-.25.05-.5.07-.76.09-4.37.42-9.12-.72-12.32-3.86,0,0,.83-1.91,2.37-5.06,1.17,4.33,7.62,4.59,7.62,4.59,43.24-6.98,66.31-18.76,66.31-18.76-62.13-1.43-56.25-8.29-56.25-8.29,1.87,1.06,4.11,1.23,6.23,1.22,2.66,0,5.33.19,7.99.35,1.88.12,3.81.31,5.69.31,2.66.15,5.33.3,8,.44,2.96.17,5.93.33,8.9.49,3.07.16,6.14.34,9.21.5,2.97.17,5.94.33,8.9.49,2.66.14,5.32.29,7.98.43,2.16.12,4.31.24,6.46.36,1.45.08,2.88.15,4.32.23.52.03,1.06.05,1.58.09"/>
      <path class="cls-3" d="M217.02,162.34s-23.07,11.78-66.31,18.76c0,0-6.45-.26-7.62-4.59h0c2.11-4.31,5.54-10.94,10.03-18.24,1.86-3.02,3.9-6.17,6.11-9.3.02-.04.05-.08.08-.12-.02.04-.05.08-.07.12-.45.74-.67,1.49-.53,2.38.2,1.2,1.02,2.12,2.06,2.7,0,0-5.88,6.86,56.25,8.29"/>
      <g class="cls-5">
        <rect class="cls-6" x="92.02" y="151.73" width="215.58" height="156.51"/>
      </g>
    </g>
  </g>
</svg>